<svg width="101" height="101" viewBox="0 0 101 101" fill="none" xmlns="http://www.w3.org/2000/svg">
<path d="M38.2647 49.0198C37.5713 48.922 36.8651 48.9706 36.1917 49.1624C35.5182 49.3542 34.8924 49.685 34.3546 50.1334C33.1722 51.0656 32.7047 51.0408 31.6268 49.9739C29.1685 47.5248 26.7139 45.0702 24.263 42.6101C23.2126 41.557 23.2043 40.9438 24.241 39.9071C36.4645 27.6799 48.6917 15.4555 60.9226 3.23377C64.3158 -0.151169 69.1361 -0.159418 72.521 3.21177C80.9536 11.604 89.3623 20.0136 97.7472 28.4407C101.162 31.8724 101.146 36.6899 97.7252 40.1216C85.5402 52.3305 73.3441 64.5357 61.1371 76.7372C60.0372 77.8371 59.468 77.8151 58.3626 76.7152C55.93 74.2863 53.4992 71.8592 51.0703 69.4339C49.9456 68.3065 49.9264 67.872 50.9135 66.6374C51.3674 66.0925 51.7055 65.4609 51.9073 64.7811C52.1092 64.1013 52.1706 63.3875 52.0877 62.6833C51.7632 62.9582 51.5377 63.1067 51.3672 63.2855C43.1822 71.4687 34.9971 79.6593 26.812 87.8572C26.4721 88.2233 26.2473 88.6814 26.1658 89.1743C25.2914 94.5308 22.4289 98.3172 17.2292 99.9863C12.2081 101.598 7.66004 100.426 4.00288 96.6344C0.403459 92.9002 -0.56995 88.3549 1.14314 83.4741C2.88923 78.4531 6.64263 75.6676 11.8671 74.8426C12.2951 74.7885 12.6977 74.6096 13.0248 74.3284C21.3052 66.0792 29.5709 57.8181 37.822 49.545C37.932 49.4267 38.031 49.2948 38.2647 49.0198ZM59.7127 73.8912L87.8014 45.8163C87.7389 45.7279 87.6709 45.6434 87.5979 45.5634C83.9297 41.8924 80.2698 38.2133 76.5742 34.5644C76.2189 34.2775 75.7709 34.1308 75.3148 34.1519C70.522 34.3141 66.6833 30.5415 66.8786 25.7597C66.902 25.459 66.8546 25.1571 66.7399 24.8781C66.6253 24.5992 66.4467 24.3511 66.2186 24.1538C62.7558 20.7222 59.3039 17.2758 55.8631 13.8148C55.6293 13.5811 55.3764 13.3638 55.2004 13.2016L27.153 41.249L33.2409 47.3479L33.6891 47.106C36.9888 45.3021 40.6845 45.7668 43.3655 48.4038C46.4782 51.4643 49.5497 54.5633 52.6266 57.6595C54.0356 59.0535 54.8656 60.9285 54.9502 62.9087C55.0338 64.6399 54.5701 66.3534 53.6248 67.806L59.7127 73.8912ZM50.4433 59.84L41.2729 50.6531L16.704 75.2276C21.3373 76.5832 24.4362 79.7482 25.8359 84.453L50.4433 59.84ZM23.3501 87.8022C23.3668 85.8182 22.7953 83.8737 21.7079 82.2141C20.6205 80.5545 19.0658 79.2543 17.2402 78.4775C15.4145 77.7006 13.3996 77.482 11.4498 77.8492C9.49994 78.2165 7.70261 79.1531 6.28459 80.5408C4.86657 81.9285 3.89141 83.7052 3.4822 85.6467C3.07299 87.5881 3.24806 89.6073 3.98532 91.4493C4.72257 93.2913 5.98897 94.8737 7.62468 95.9966C9.2604 97.1196 11.1921 97.7329 13.176 97.759C14.5006 97.7835 15.8167 97.5442 17.0479 97.0552C18.2791 96.5662 19.4008 95.8372 20.3476 94.9106C21.2943 93.984 22.0474 92.8783 22.5629 91.658C23.0783 90.4376 23.3459 89.1269 23.3501 87.8022ZM94.7527 39.4067C95.1432 38.9035 95.4484 38.4415 95.8224 38.0318C97.9892 35.7303 98.0029 32.7248 95.7646 30.481C87.3687 22.0576 78.9609 13.6471 70.5412 5.24933C68.5669 3.27776 65.7814 3.01379 63.7108 4.58664C63.0473 5.14178 62.4122 5.73006 61.808 6.34923C61.9758 6.54996 62.083 6.6847 62.1875 6.80294C65.8309 10.4491 69.4661 14.1063 73.1397 17.7222C73.4945 18.0086 73.9441 18.1509 74.3991 18.1209C79.1094 17.8459 83.1433 21.8935 82.8793 26.6121C82.8831 27.1306 83.0791 27.6293 83.4293 28.0117C85.7006 30.3573 88.0268 32.6478 90.3339 34.9576L94.7527 39.4067ZM74.9133 31.2894C75.9328 31.281 76.9268 30.9698 77.769 30.3952C78.6112 29.8206 79.2635 29.0087 79.6432 28.0625C80.0229 27.1163 80.1127 26.0786 79.9013 25.0812C79.6899 24.0839 79.1867 23.1719 78.4558 22.4611C77.7249 21.7504 76.7992 21.2729 75.7963 21.0895C74.7934 20.906 73.7586 21.0248 72.8234 21.4308C71.8882 21.8368 71.0948 22.5117 70.544 23.3696C69.9932 24.2275 69.7099 25.2298 69.73 26.2491C69.768 27.5977 70.3311 28.878 71.2993 29.8175C72.2675 30.7569 73.5643 31.2811 74.9133 31.2784V31.2894ZM67.8877 21.5306L70.203 19.273L59.644 8.72501L57.3177 10.9633L67.8877 21.5306ZM79.4751 33.0548L90.0562 43.6385L92.3907 41.425L81.7629 30.8055L79.4751 33.0548Z" fill="white"/>
</svg>
