<svg width="101" height="101" viewBox="0 0 101 101" fill="none" xmlns="http://www.w3.org/2000/svg">
<path d="M36.7527 79.7465C33.5208 86.8296 26.7323 89.2301 21.2018 88.3657C15.1153 87.4105 10.8456 82.9784 9.19389 75.6778H3.80381C0.657306 75.6778 0.629778 75.6778 0.665565 72.5148C0.704105 69.2499 0.560956 65.9603 0.918827 62.7257C1.88508 54.0156 9.69766 46.5719 18.4022 45.8094C19.1179 45.7461 19.8337 45.6718 20.6815 45.5919C20.6815 45.0248 20.6623 44.4908 20.6815 43.9402C20.8082 41.0167 23.1233 38.6135 26.0496 38.5749C31.0047 38.507 35.9598 38.507 40.915 38.5749C44.0147 38.6162 46.3216 41.0993 46.3381 44.3091C46.3656 50.503 46.3381 56.6969 46.3381 62.8908C46.3381 63.2955 46.3381 63.7002 46.3381 64.1627C46.7372 64.1902 47.0373 64.226 47.3374 64.226C51.1914 64.226 55.0453 64.2122 58.8993 64.2452C59.1815 64.2769 59.4662 64.2155 59.7102 64.0704C59.9542 63.9253 60.1441 63.7044 60.251 63.4414C62.5937 59.0809 64.9914 54.7507 67.3286 50.3874C67.5667 49.9097 67.6622 49.3736 67.6038 48.843C67.2239 45.5396 66.778 42.2362 66.3623 38.9163C66.3442 38.85 66.3395 38.7807 66.3485 38.7126C66.7973 36.6782 65.5227 35.5248 64.3335 34.1291C62.4808 31.9626 60.4189 30.878 57.5642 31.3569C56.7631 31.4918 55.9125 31.379 55.0233 31.379V28.5215C57.4293 28.5215 59.794 28.483 62.1587 28.5573C62.5992 28.5711 63.0892 28.9757 63.4415 29.3198C64.3472 30.2008 65.1868 31.1505 66.0512 32.0727L66.2742 31.924V20.0565H62.1037V24.1638H59.3343V12.8523H62.0266V17.1054H66.4311C69.1399 17.1054 69.2528 17.2211 69.2528 19.9684V28.5022C72.3443 28.5022 75.3311 28.5022 78.3152 28.483C78.6122 28.4288 78.8857 28.2857 79.0997 28.0728C81.1644 26.3798 83.5841 25.7301 86.1938 25.6723C87.2372 25.6503 87.8208 26.2009 87.8235 27.2469C87.8456 31.8938 87.8456 36.5396 87.8235 41.1846C87.8235 42.2858 87.2482 42.8639 86.1305 42.762C84.5779 42.6216 83.0391 42.3326 81.4259 42.0958C82.2187 46.0682 83.0336 50.1314 83.8732 54.335C87.9694 54.0322 91.895 54.5222 95.6086 56.5373C95.1571 57.3961 94.7469 58.189 94.2982 59.0148C91.284 57.4508 87.8724 56.8193 84.4981 57.2007C84.677 58.1312 84.8477 58.9983 85.0487 59.9535C90.0038 59.7113 94.1936 61.2942 97.3979 65.1234C99.6201 67.7544 100.789 71.1153 100.679 74.5574C100.58 81.3432 95.3443 87.3692 88.6934 88.3217C81.558 89.3485 74.9292 85.2495 72.7875 78.5601C70.7256 72.1266 73.4509 63.5433 82.2215 60.4573C82.037 59.5324 81.8526 58.5964 81.6461 57.5751C77.1865 58.5606 73.762 60.84 71.5762 64.8178C69.5611 68.4929 69.0656 72.4955 69.1895 76.6055C69.2886 79.9089 69.3244 79.9089 66.0678 79.9089C57.2219 79.9089 48.3761 79.9089 39.5303 79.9089C38.6274 79.9255 37.7437 79.8126 36.7527 79.7465ZM81.0433 54.7864L78.0922 40.1055H69.4483C69.8309 43.1887 70.2301 46.1893 70.5494 49.1899C70.6233 49.8248 70.5174 50.4677 70.2438 51.0453C67.5873 56.0005 64.8593 60.9556 62.1835 65.9107C62.0053 66.2988 61.7116 66.6224 61.3425 66.8372C60.9735 67.052 60.5471 67.1476 60.1216 67.111C55.3041 67.0834 50.4866 67.0834 45.6691 67.0834C43.8825 67.0834 43.5054 66.7035 43.5027 64.8811C43.5027 59.8581 43.5027 54.8342 43.5027 49.8093V48.554C43.1558 48.5292 42.9218 48.4989 42.6768 48.4989C35.2441 48.4989 27.8114 48.3558 20.3787 48.543C13.2406 48.7247 8.0955 52.2566 4.98479 58.6955C2.81279 63.1909 3.6992 67.9919 3.49825 72.8176H4.83338C14.5399 72.8176 24.2456 72.8176 33.9503 72.8176C36.0094 72.8176 37.4161 73.8554 37.6969 75.7659C37.8538 76.8368 38.3053 77.0928 39.3046 77.09C47.91 77.0598 56.5154 77.0735 65.118 77.0708C65.4814 77.0708 65.8475 77.0322 66.1834 77.013C66.31 75.0584 66.3375 73.2003 66.5715 71.3669C67.1661 66.7118 68.8096 62.5164 72.2864 59.2048C74.7255 56.9144 77.6628 55.5628 81.0433 54.7864ZM82.7941 63.5047C77.426 64.7463 73.8418 71.287 75.2981 77.0487C75.6567 78.5451 76.3137 79.9537 77.2299 81.19C78.146 82.4263 79.3023 83.4649 80.6295 84.2436C81.9568 85.0222 83.4275 85.5248 84.9537 85.7213C86.4799 85.9178 88.03 85.8041 89.5111 85.387C90.9923 84.9699 92.374 84.2581 93.5734 83.2941C94.7728 82.3302 95.7652 81.134 96.4911 79.7772C97.2171 78.4204 97.6616 76.9311 97.798 75.3984C97.9344 73.8657 97.76 72.3212 97.2851 70.8576C95.3581 64.6802 89.0926 62.2412 85.6267 63.0147L86.4278 67.0174C86.9619 67.1137 87.4354 67.1825 87.9034 67.2926C89.0695 67.5508 90.1522 68.0978 91.0518 68.8834C91.9515 69.669 92.6394 70.6681 93.0524 71.7888C93.4654 72.9096 93.5902 74.1161 93.4153 75.2977C93.2405 76.4792 92.7716 77.5979 92.0518 78.551C91.3319 79.5041 90.3842 80.2611 89.2955 80.7525C88.2069 81.2439 87.0122 81.4539 85.8213 81.3633C84.6303 81.2727 83.4812 80.8843 82.4794 80.2338C81.4776 79.5834 80.6553 78.6917 80.088 77.6406C78.5189 74.7253 79.0172 70.8356 81.7067 68.9746C83.4988 67.7358 83.6777 66.5301 83.0694 64.7765C82.9539 64.3581 82.862 63.9335 82.7941 63.5047ZM12.2385 75.6861C12.251 75.9947 12.2795 76.3026 12.3239 76.6083C13.7003 83.116 20.3512 87.1352 26.7295 85.1999C30.9414 83.9226 33.5814 81.0321 34.6357 76.7487C34.71 76.4514 34.4843 75.7852 34.3604 75.7769C33.1629 75.6971 31.9324 75.5677 30.7817 75.7769C30.3826 75.8512 30.1651 76.8781 29.865 77.4589C29.8017 77.58 29.7412 77.7039 29.6696 77.8195C28.0537 80.4017 25.711 81.646 22.7104 81.3129C19.7951 80.9881 17.8241 79.3171 16.7532 76.5752C16.6238 76.2422 16.332 75.7494 16.0898 75.7274C14.8345 75.6393 13.5709 75.6861 12.2385 75.6861ZM23.6408 45.5754H36.37V41.4324C36.0314 41.4104 35.7314 41.3746 35.4285 41.3746C32.6069 41.3746 29.7852 41.3746 26.9635 41.3746C24.3098 41.3911 23.1481 42.8584 23.6408 45.5754ZM69.2941 37.0774C71.9148 37.0774 74.4502 37.0774 76.9856 37.0774C77.2196 37.0774 77.4535 37.0278 77.7233 36.9975V31.379H69.2941V37.0774ZM84.2283 70.6621C83.3345 71.1533 82.6556 71.9596 82.3238 72.9239C81.992 73.8883 82.0311 74.9417 82.4334 75.8788C82.8313 76.8376 83.5643 77.619 84.4957 78.0774C85.4272 78.5357 86.4935 78.6398 87.4959 78.3701C89.4807 77.8333 90.8764 75.8457 90.6617 73.8637C90.4387 71.8211 88.8834 70.1969 87.083 70.1694C87.3198 71.4109 87.5537 72.6469 87.807 73.9738L85.0376 74.5244C84.7569 73.1975 84.5008 71.9642 84.2283 70.6429V70.6621ZM84.8972 28.6592C83.4843 28.7065 82.1333 29.2504 81.0818 30.1952C80.8282 30.4564 80.6818 30.8031 80.6716 31.167C80.6331 33.2316 80.6331 35.2954 80.6716 37.3582C80.6878 37.7232 80.8435 38.0681 81.1066 38.3217C82.1679 39.231 83.5014 39.7616 84.8972 39.8302V28.6592ZM43.3815 45.5892C43.8633 42.561 42.1813 40.8846 39.3486 41.515V45.6442C40.5819 45.6442 41.7436 45.6442 42.908 45.6442C43.0686 45.6353 43.2286 45.6169 43.387 45.5892H43.3815ZM19.6547 75.7219C20.0539 77.4066 21.7138 78.549 23.6326 78.505C25.455 78.461 27.0434 77.2937 27.3627 75.7219H19.6547Z" fill="white"/>
<path d="M6.48228 65.608C6.03632 58.3983 12.8276 51.0977 20.6099 51.4969V54.2194C17.4799 54.3323 14.7629 55.4114 12.5551 57.6219C10.3473 59.8325 9.32322 62.5193 9.19384 65.6052L6.48228 65.608Z" fill="white"/>
</svg>
