<svg width="101" height="101" viewBox="0 0 101 101" fill="none" xmlns="http://www.w3.org/2000/svg">
<path d="M98.4256 56.4413C98.3816 61.9215 97.6608 68.0235 96.4475 74.0704C96.277 74.8957 96.0954 75.6055 97.1271 76.0842C97.8946 76.4363 97.8368 77.2507 97.735 78.01C97.2041 81.9468 95.7653 85.57 93.955 89.0667C91.9647 92.8731 89.5989 96.4711 86.8929 99.807C86.0896 100.806 85.4183 100.957 84.5215 100.264C78.469 95.573 71.5555 92.5468 64.4384 89.9305C52.5784 85.5645 40.3304 82.6153 27.9422 80.2246C23.0507 79.281 18.1153 78.5052 13.21 77.7211C12.7389 77.6693 12.2896 77.495 11.9068 77.2155C11.5241 76.9361 11.2212 76.5612 11.0284 76.1282C6.1892 66.9203 3.47661 57.1841 3.53438 46.7602C3.58665 37.8658 5.50417 29.3842 9.58682 21.45C9.71191 21.2527 9.76789 21.0194 9.74598 20.7869C9.72407 20.5543 9.6255 20.3356 9.46577 20.1652C8.36533 18.6301 7.29515 17.0702 6.22221 15.5131C5.31985 14.2035 5.4409 13.5268 6.77244 12.7427C16.957 6.76455 27.7441 2.48658 39.5381 1.04225C51.0928 -0.371818 61.6323 2.52235 71.3299 8.74535C79.7235 14.132 86.0428 21.3839 90.3483 30.3801C90.6509 31.0128 90.9893 31.2412 91.7074 31.3347C92.3537 31.4602 92.9248 31.8346 93.2975 32.3774C95.1463 35.277 96.1889 38.5123 96.9675 41.8384C98.0404 46.4108 98.4311 51.0601 98.4256 56.4413ZM85.4679 97.2952C87.2753 94.4423 89.1131 91.7022 90.7858 88.8686C92.5658 85.8804 93.8655 82.6312 94.6373 79.2397C94.8299 78.3869 94.7143 77.8642 93.8477 77.3442C79.8831 68.957 65.9313 60.5459 51.9924 52.1111C51.5247 51.8359 50.8479 51.8359 50.2674 51.8167C48.8314 51.7947 47.3595 52.0588 45.9647 51.8167C43.6407 51.4318 41.4892 50.3478 39.7969 48.7091C38.1047 47.0704 36.952 44.9549 36.4926 42.6445C36.0165 40.3217 36.2544 37.9092 37.175 35.7241C38.0957 33.539 39.6561 31.6837 41.651 30.4021C45.6648 27.805 50.8589 27.9536 54.8563 30.7239C55.3265 31.0435 55.8782 31.222 56.4464 31.2384C66.4605 31.2696 76.4727 31.2769 86.483 31.2604C86.8049 31.2604 87.124 31.2219 87.556 31.1944C87.3496 30.7625 87.2148 30.4543 87.0607 30.1572C83.5542 23.2563 78.4471 17.2946 72.1663 12.7702C61.8358 5.34223 50.4325 2.11793 37.7114 4.19502C29.1554 5.59808 21.1415 8.52801 13.3971 12.3658C11.9665 13.0701 10.5772 13.8597 9.10813 14.6437C10.3159 16.3879 11.4163 18.0083 12.5498 19.5957C12.7926 19.8862 12.9368 20.2464 12.9615 20.6242C12.9862 21.002 12.8902 21.3779 12.6873 21.6976C8.33231 29.5767 6.48082 38.1052 6.35152 47.0353C6.35152 47.7918 6.62663 48.0889 7.29239 48.3475C13.3806 50.6915 19.4908 52.9611 25.5212 55.4674C39.2493 61.1484 52.6857 67.4265 65.3793 75.2011C70.931 78.6015 76.2571 82.31 81.0798 86.709C81.7594 87.328 82.018 87.969 81.7704 88.9099C81.3742 90.401 81.0716 91.9196 80.7855 93.4382C80.7277 93.7436 80.7992 94.2635 81.0028 94.3983C82.3811 95.3447 83.8089 96.2278 85.4679 97.2952ZM54.4299 50.21L93.4956 73.831C93.5555 73.7161 93.6061 73.5965 93.6469 73.4734C95.2976 65.0247 96.1009 56.5266 95.0747 47.9376C94.5438 43.4836 93.5313 39.1478 91.5753 35.0679C91.2314 34.3499 90.8133 34.1051 90.0072 34.1078C79.7538 34.1381 69.5004 34.1271 59.2498 34.1298C58.8949 34.1298 58.54 34.1656 58.1494 34.1876C60.983 41.3295 60.0696 45.2388 54.4299 50.21ZM6.58811 51.0354C6.58811 51.4838 6.56885 51.7259 6.58811 51.9625C7.35604 59.607 9.55577 67.0387 13.0725 73.8696C13.2147 74.1895 13.4416 74.4647 13.7285 74.6654C14.0155 74.8661 14.3518 74.9847 14.7011 75.0085C25.5487 76.5767 36.3017 78.7415 46.9111 81.4929C57.4946 84.244 67.902 87.5178 77.674 92.5413C77.7483 92.5798 77.8583 92.5413 78.0234 92.5413C78.2242 91.6362 78.337 90.7063 78.6424 89.8425C78.9945 88.8521 78.6286 88.2964 77.8968 87.6664C71.6876 82.321 64.796 77.9962 57.6789 74.0099C45.3127 67.0826 32.4018 61.3025 19.2735 56.0011C15.1083 54.3367 10.9073 52.7383 6.59361 51.0546L6.58811 51.0354ZM39.1255 40.3061C39.1239 42.0679 39.6457 43.7905 40.6248 45.2553C41.6039 46.72 42.9961 47.8609 44.6247 48.5331C46.2533 49.2052 48.0449 49.3785 49.7721 49.0307C51.4993 48.6829 53.0842 47.8299 54.3258 46.5798C55.5673 45.3297 56.4095 43.739 56.7455 42.0095C57.0814 40.2799 56.896 38.4896 56.2127 36.8656C55.5294 35.2417 54.379 33.8573 52.9076 32.8883C51.4362 31.9192 49.7101 31.4091 47.9483 31.4227C45.6037 31.4416 43.3613 32.3855 41.7091 34.0491C40.0568 35.7127 39.1283 37.9614 39.1255 40.3061Z" fill="black"/>
<path d="M87.08 38.9525L89.7018 37.8521C92.2548 44.2786 92.8023 50.9391 92.6373 57.7673H89.7789C89.9192 51.3352 89.4295 45.0655 87.08 38.9525Z" fill="black"/>
<path d="M42.248 40.3199C42.2389 39.5538 42.3841 38.7938 42.6749 38.085C42.9657 37.3761 43.3961 36.7331 43.9405 36.194C44.4849 35.655 45.1323 35.231 45.8439 34.9473C46.5556 34.6636 47.3171 34.5259 48.0831 34.5426C49.2232 34.554 50.3344 34.9025 51.2769 35.5442C52.2193 36.1859 52.9508 37.0922 53.3792 38.1488C53.8077 39.2054 53.9139 40.3652 53.6845 41.482C53.4551 42.5989 52.9003 43.6229 52.0901 44.4251C51.2799 45.2273 50.2504 45.7718 49.1313 45.9901C48.0122 46.2084 46.8536 46.0907 45.8013 45.6517C44.749 45.2128 43.85 44.4723 43.2177 43.5236C42.5854 42.5748 42.248 41.4601 42.248 40.3199ZM45.1119 40.2457C45.1046 40.6315 45.1739 41.015 45.3157 41.3739C45.4576 41.7328 45.6693 42.0599 45.9384 42.3365C46.2076 42.6131 46.5289 42.8335 46.8838 42.9851C47.2387 43.1367 47.6201 43.2164 48.006 43.2196C48.7678 43.2066 49.4954 42.9011 50.0383 42.3665C50.5811 41.8319 50.8976 41.109 50.9222 40.3474C50.9247 39.9614 50.8512 39.5786 50.7057 39.2209C50.5602 38.8633 50.3456 38.5379 50.0743 38.2632C49.8029 37.9885 49.4801 37.7701 49.1243 37.6202C48.7685 37.4704 48.3866 37.3922 48.0005 37.39C47.6232 37.3875 47.2492 37.4594 46.8997 37.6016C46.5502 37.7438 46.2323 37.9535 45.9639 38.2187C45.6956 38.484 45.4823 38.7995 45.3361 39.1473C45.1898 39.4951 45.1137 39.8684 45.1119 40.2457Z" fill="black"/>
</svg>
