<svg width="175" height="80" viewBox="0 0 175 80" fill="none" xmlns="http://www.w3.org/2000/svg">
<path d="M0.0206299 20.6807H7.02477V39.4935L15.9391 20.6807H22.9433L14.6078 37.1057L23.0735 65.3104H15.751L9.83222 45.4412L7.02477 51.0706V65.267H0.0206299V20.6807Z" fill="white"/>
<path d="M28.4858 20.6807H35.4899V65.2525H28.4858V20.6807Z" fill="white"/>
<path d="M42.8125 20.6807H49.8166V39.4935L58.731 20.6807H65.7351L57.3996 37.1057L65.8653 65.3104H58.5428L52.6241 45.4412L49.8166 51.0706V65.267H42.8125V20.6807Z" fill="white"/>
<path d="M72.2327 63.0529C70.3511 60.7092 69.4165 57.7454 69.6134 54.7463V52.1993H76.2413V55.2528C76.2413 58.1471 77.4569 59.5942 79.8736 59.5942C80.3733 59.6277 80.8743 59.5519 81.3417 59.3719C81.8091 59.192 82.2316 58.9123 82.5798 58.5523C83.2798 57.5578 83.6076 56.3489 83.5059 55.137C83.5355 53.4072 83.0954 51.7018 82.2325 50.2023C80.9173 48.2745 79.328 46.5487 77.5148 45.0794C75.1369 43.1223 73.0938 40.7908 71.4658 38.1766C70.309 36.0314 69.7257 33.6237 69.7726 31.1869C69.5868 28.215 70.5446 25.2846 72.4498 22.9961C73.4677 21.9928 74.6863 21.2162 76.0256 20.7174C77.365 20.2185 78.7947 20.0088 80.2209 20.1019C81.6238 20.0025 83.0315 20.2099 84.346 20.7097C85.6606 21.2095 86.8505 21.9898 87.8329 22.9961C89.6875 25.3577 90.6048 28.3208 90.4088 31.3172V33.155H83.752V30.8107C83.8552 29.6276 83.5431 28.4456 82.8692 27.4678C82.5364 27.1142 82.1279 26.8407 81.6742 26.6678C81.2205 26.4948 80.7336 26.427 80.2499 26.4693C77.92 26.4693 76.7478 27.9164 76.7478 30.7383C76.7416 32.3369 77.1936 33.9037 78.0502 35.2534C79.3882 37.1636 80.9857 38.878 82.7968 40.3473C85.2115 42.2832 87.2602 44.6357 88.8459 47.2936C90.001 49.558 90.573 52.0748 90.5101 54.6161C90.7086 57.6607 89.7411 60.6667 87.8039 63.0239C86.7745 64.0406 85.5393 64.8249 84.1814 65.3241C82.8234 65.8234 81.3743 66.0259 79.9315 65.9182C78.5174 66.0254 77.0969 65.8247 75.7678 65.33C74.4387 64.8354 73.2327 64.0585 72.2327 63.0529Z" fill="white"/>
<path d="M98.8166 63.0818C96.9295 60.8245 95.9815 57.9286 96.1684 54.9923V31.0567C95.983 28.1206 96.9308 25.2252 98.8166 22.9672C99.8147 21.9657 101.015 21.1893 102.338 20.6901C103.661 20.1909 105.076 19.9804 106.486 20.0729C107.897 19.9795 109.312 20.1895 110.635 20.6887C111.958 21.188 113.159 21.9649 114.156 22.9672C116.042 25.2252 116.99 28.1206 116.805 31.0567V35.7743H110.177V30.6081C110.177 27.8585 109.019 26.4693 106.675 26.4693C104.33 26.4693 103.173 27.9164 103.173 30.6081V55.5133C103.173 58.2194 104.345 59.5797 106.675 59.5797C109.004 59.5797 110.177 58.2194 110.177 55.5133V48.6973H116.805V54.9923C116.991 57.9286 116.043 60.8245 114.156 63.0818C113.159 64.0841 111.958 64.861 110.635 65.3603C109.312 65.8595 107.897 66.0695 106.486 65.9761C105.076 66.0686 103.661 65.8581 102.338 65.3589C101.015 64.8597 99.8147 64.0833 98.8166 63.0818Z" fill="white"/>
<path d="M125.458 63.0239C123.512 60.7212 122.532 57.7551 122.723 54.7463V31.3172C122.531 28.3082 123.511 25.3415 125.458 23.0395C127.651 21.1434 130.454 20.0998 133.353 20.0998C136.252 20.0998 139.054 21.1434 141.247 23.0395C143.207 25.3348 144.194 28.305 143.996 31.3172V54.7463C144.194 57.7585 143.207 60.7287 141.247 63.0239C140.211 64.0356 138.972 64.8165 137.613 65.3153C136.254 65.8141 134.804 66.0196 133.36 65.9182C131.913 66.0208 130.461 65.8159 129.099 65.317C127.737 64.8182 126.497 64.0367 125.458 63.0239ZM137.036 55.1949V30.8107C137.036 27.9164 135.82 26.4693 133.403 26.4693C130.986 26.4693 129.771 27.9164 129.771 30.8107V55.1949C129.771 58.0892 130.986 59.5363 133.403 59.5363C135.82 59.5363 136.992 58.1181 136.992 55.1949H137.036Z" fill="white"/>
<path d="M149.437 11.4914C149.287 10.9189 149.2 10.3318 149.177 9.74036C149.07 7.62296 149.807 5.54959 151.225 3.97388C152.644 2.39818 154.629 1.44845 156.745 1.3325L156.876 3.31507C156.439 3.3127 156.005 3.37613 155.588 3.5032C154.83 3.71357 154.121 4.07182 153.502 4.5573C152.884 5.04278 152.367 5.6459 151.982 6.33192C151.597 7.01794 151.352 7.7733 151.261 8.55448C151.169 9.33567 151.233 10.1272 151.449 10.8836L153.707 19.0599L151.767 19.6388L149.437 11.4914Z" fill="#4A6F5D"/>
<path d="M146.847 68.3349H120.205V71.2437H146.847V68.3349Z" fill="#273A30"/>
<path d="M100.162 69.8834C100.16 71.7278 100.704 73.5317 101.727 75.0665C102.75 76.6013 104.205 77.798 105.909 78.5052C107.612 79.2124 109.487 79.3981 111.297 79.039C113.106 78.6799 114.768 77.792 116.072 76.4877C117.376 75.1835 118.264 73.5216 118.623 71.7124C118.982 69.9033 118.797 68.0282 118.089 66.3247C117.382 64.6212 116.185 63.1658 114.651 62.1429C113.116 61.1199 111.312 60.5754 109.468 60.5783C108.245 60.5744 107.033 60.8125 105.902 61.2788C104.771 61.7451 103.744 62.4303 102.879 63.2951C102.015 64.16 101.329 65.1873 100.863 66.3179C100.397 67.4486 100.159 68.6603 100.162 69.8834ZM109.468 75.3246C108.009 75.3246 106.61 74.7452 105.579 73.7139C104.548 72.6826 103.968 71.2839 103.968 69.8255C103.968 68.7378 104.291 67.6747 104.895 66.7703C105.499 65.866 106.358 65.1612 107.363 64.7449C108.368 64.3287 109.474 64.2198 110.54 64.432C111.607 64.6442 112.587 65.1679 113.356 65.937C114.125 66.7061 114.649 67.6859 114.861 68.7526C115.073 69.8194 114.964 70.9251 114.548 71.9299C114.132 72.9347 113.427 73.7936 112.523 74.3978C111.618 75.0021 110.555 75.3246 109.468 75.3246Z" fill="#273A30"/>
<path d="M165.674 60.6362C164.455 60.6304 163.246 60.8652 162.118 61.327C160.989 61.7888 159.963 62.4686 159.097 63.3275C158.232 64.1863 157.544 65.2074 157.073 66.3324C156.603 67.4573 156.359 68.664 156.355 69.8834C156.352 71.7272 156.896 73.5305 157.918 75.065C158.941 76.5995 160.395 77.7962 162.098 78.5038C163.801 79.2114 165.675 79.398 167.484 79.0401C169.292 78.6821 170.954 77.7957 172.259 76.4929C173.564 75.1901 174.453 73.5295 174.814 71.7213C175.175 69.9131 174.991 68.0385 174.286 66.3347C173.581 64.631 172.386 63.1746 170.854 62.1499C169.321 61.1252 167.518 60.5783 165.674 60.5783V60.6362ZM165.674 75.3825C164.216 75.3825 162.817 74.8031 161.786 73.7718C160.755 72.7405 160.175 71.3418 160.175 69.8834C160.175 68.7957 160.498 67.7325 161.102 66.8282C161.706 65.9239 162.565 65.219 163.57 64.8028C164.575 64.3866 165.68 64.2777 166.747 64.4899C167.814 64.7021 168.794 65.2258 169.563 65.9949C170.332 66.764 170.856 67.7438 171.068 68.8105C171.28 69.8773 171.171 70.9829 170.755 71.9878C170.339 72.9926 169.634 73.8515 168.729 74.4557C167.825 75.06 166.762 75.3825 165.674 75.3825Z" fill="#273A30"/>
<path d="M153.364 15.2086L150.596 15.8906L156.024 37.9229L158.792 37.241L153.364 15.2086Z" fill="#4A6F5D"/>
<path d="M153.481 14.6956L150.278 15.4849L150.697 17.1851L153.9 16.3958L153.481 14.6956Z" fill="#273A30"/>
<path d="M152.866 13.6922L150.421 14.2945L150.715 15.4889L153.16 14.8865L152.866 13.6922Z" fill="#273A30"/>
<path d="M154.864 37.1636L159.524 35.9914L163.46 52.1704L159.452 55.7882L154.864 37.1636Z" fill="#4A6F5D"/>
<path d="M159.782 35.409L154.316 36.7556L154.718 38.3856L160.184 37.039L159.782 35.409Z" fill="#273A30"/>
<path d="M158.846 34.552L154.701 35.5732L154.995 36.7676L159.14 35.7464L158.846 34.552Z" fill="#273A30"/>
<path d="M161.854 48.0895L167.02 69.1742C167.121 69.6001 167.05 70.0484 166.822 70.4222C166.595 70.796 166.229 71.0651 165.805 71.1713H165.674C165.458 71.2318 165.231 71.2477 165.008 71.2181C164.785 71.1885 164.57 71.1139 164.376 70.999C164.183 70.884 164.015 70.731 163.882 70.5492C163.75 70.3674 163.655 70.1606 163.605 69.9412L158.424 48.8565C158.364 48.6397 158.348 48.4129 158.377 48.1899C158.407 47.9668 158.482 47.7521 158.597 47.5586C158.712 47.3652 158.865 47.1971 159.046 47.0645C159.228 46.9318 159.435 46.8375 159.654 46.7871H159.784C160.231 46.6874 160.7 46.7684 161.087 47.0123C161.475 47.2562 161.75 47.6434 161.854 48.0895Z" fill="#4A6F5D"/>
<path d="M155.327 1.72322V1.59298C155.435 1.34416 155.592 1.11953 155.788 0.932423C155.985 0.745313 156.217 0.599526 156.47 0.503706C156.724 0.407886 156.994 0.363983 157.265 0.3746C157.536 0.385217 157.802 0.450138 158.048 0.565515L164.126 3.08353C164.596 3.30189 164.965 3.69216 165.156 4.17401C165.347 4.65587 165.346 5.19265 165.153 5.67391V5.80415C164.935 6.27429 164.545 6.64285 164.063 6.83397C163.581 7.0251 163.044 7.02426 162.563 6.83162L156.557 4.3136C156.302 4.23131 156.065 4.09754 155.863 3.92052C155.661 3.74351 155.498 3.52699 155.382 3.28432C155.267 3.04164 155.203 2.77795 155.193 2.50947C155.184 2.24099 155.229 1.97341 155.327 1.72322Z" fill="#273A30"/>
<path d="M164.372 8.13404C165.731 8.13404 166.832 7.0326 166.832 5.67391C166.832 4.31521 165.731 3.21377 164.372 3.21377C163.013 3.21377 161.912 4.31521 161.912 5.67391C161.912 7.0326 163.013 8.13404 164.372 8.13404Z" fill="#273A30"/>
<path d="M163.475 52.1559L152.158 67.7416L145.241 68.8414V61.7939C145.227 59.3339 145.899 56.9188 147.18 54.8187L149.958 50.2891C151.17 48.3119 152.874 46.6822 154.903 45.5587C156.931 44.4352 159.217 43.8563 161.536 43.8783L163.475 52.1559Z" fill="#273A30"/>
<path d="M117.948 73.7617L109.019 71.3305C108.599 71.2192 108.24 70.9455 108.021 70.5696C107.803 70.1937 107.743 69.7465 107.854 69.3262C107.965 68.9059 108.239 68.5471 108.615 68.3286C108.991 68.1102 109.438 68.05 109.858 68.1613L118.541 70.4911H138.7C141.687 70.5052 144.634 69.7998 147.292 68.4346C149.949 67.0694 152.239 65.0845 153.967 62.6477L168.713 42.9232C168.972 42.5835 169.354 42.3596 169.777 42.3C170.199 42.2404 170.628 42.3499 170.971 42.6048C171.311 42.866 171.536 43.2506 171.595 43.6756C171.655 44.1007 171.545 44.5321 171.289 44.8768L156.601 64.5145C154.591 67.3819 151.917 69.7205 148.807 71.3308C145.698 72.941 142.245 73.775 138.743 73.7617H117.948Z" fill="#4A6F5D"/>
<path d="M118.469 71.1134C118.309 68.0266 116.972 65.1185 114.732 62.9887C112.491 60.859 109.52 59.6699 106.429 59.6666H103.144C102.714 59.6666 102.301 59.4958 101.998 59.1919C101.694 58.8879 101.523 58.4756 101.523 58.0458C101.523 57.6159 101.694 57.2037 101.998 56.8997C102.301 56.5957 102.714 56.425 103.144 56.425H106.501C110.418 56.4126 114.189 57.909 117.032 60.6037C119.875 63.2984 121.571 66.9843 121.768 70.8963C121.776 71.3257 121.618 71.7416 121.327 72.0572C121.036 72.3727 120.634 72.5634 120.205 72.5895C119.787 72.5942 119.38 72.4474 119.061 72.1762C118.742 71.905 118.532 71.5275 118.469 71.1134Z" fill="#4A6F5D"/>
<path d="M151.695 36.5992C151.163 33.8186 151.366 30.9471 152.285 28.2692C153.204 25.5913 154.806 23.2 156.934 21.3319C158.945 19.5947 160.298 17.2182 160.764 14.6014C161.231 11.9847 160.783 9.28717 159.495 6.96186L158.525 5.08058L159.104 4.76221L160.074 6.64349C161.417 9.09449 161.88 11.9311 161.388 14.6821C160.896 17.433 159.477 19.9328 157.368 21.7661C155.314 23.5423 153.766 25.8292 152.879 28.3956C151.992 30.9619 151.798 33.7169 152.317 36.3821L154.199 46.078L153.547 46.2082L151.695 36.5992Z" fill="#273A30"/>
</svg>
