<svg id="Layer_1" data-name="Layer 1" xmlns="http://www.w3.org/2000/svg" viewBox="0 0 120.9 54.48"><defs><style>.cls-1{fill:#4a6f5d;}.cls-2{fill:#273a30;}</style></defs><path d="M1.8,14H6.64V27L12.8,14h4.84L11.88,25.35l5.85,19.49H12.67L8.58,31.11,6.64,35v9.81H1.8Z" transform="translate(-1.8)"/><path d="M21.47,14h4.84v30.8H21.47Z" transform="translate(-1.8)"/><path d="M31.37,14h4.84V27l6.16-13h4.84L41.45,25.35,47.3,44.84H42.24L38.15,31.11,36.21,35v9.81H31.37Z" transform="translate(-1.8)"/><path d="M51.7,43.28a8.3,8.3,0,0,1-1.81-5.74V35.78h4.58v2.11c0,2,.84,3,2.51,3a2.38,2.38,0,0,0,1.87-.72,3.58,3.58,0,0,0,.64-2.36,6.61,6.61,0,0,0-.88-3.41,16.59,16.59,0,0,0-3.26-3.54,19.59,19.59,0,0,1-4.18-4.77A9.78,9.78,0,0,1,50,21.26a8.06,8.06,0,0,1,1.85-5.66,7,7,0,0,1,5.37-2,6.69,6.69,0,0,1,5.26,2,8.42,8.42,0,0,1,1.78,5.75v1.27H59.66V21a3.53,3.53,0,0,0-.61-2.31A2.22,2.22,0,0,0,57.24,18c-1.61,0-2.42,1-2.42,2.95a5.78,5.78,0,0,0,.9,3.12A17.35,17.35,0,0,0,59,27.59a17.92,17.92,0,0,1,4.18,4.8,10.56,10.56,0,0,1,1.15,5.06,8.3,8.3,0,0,1-1.87,5.81,7,7,0,0,1-5.44,2A6.78,6.78,0,0,1,51.7,43.28Z" transform="translate(-1.8)"/><path d="M70.07,43.3a7.93,7.93,0,0,1-1.83-5.59V21.17a7.94,7.94,0,0,1,1.83-5.59,6.85,6.85,0,0,1,5.3-2,6.84,6.84,0,0,1,5.3,2,7.94,7.94,0,0,1,1.83,5.59v3.26H77.92V20.86c0-1.9-.8-2.86-2.42-2.86s-2.42,1-2.42,2.86V38.07c0,1.87.81,2.81,2.42,2.81s2.42-.94,2.42-2.81V33.36H82.5v4.35a7.93,7.93,0,0,1-1.83,5.59,6.84,6.84,0,0,1-5.3,2A6.85,6.85,0,0,1,70.07,43.3Z" transform="translate(-1.8)"/><path d="M88.48,43.26a8.07,8.07,0,0,1-1.89-5.72V21.35a8.06,8.06,0,0,1,1.89-5.72,8.34,8.34,0,0,1,10.91,0,8,8,0,0,1,1.9,5.72V37.54a8,8,0,0,1-1.9,5.72,7.09,7.09,0,0,1-5.45,2A7.1,7.1,0,0,1,88.48,43.26Zm8-5.41V21c0-2-.84-3-2.51-3s-2.51,1-2.51,3V37.85c0,2,.84,3,2.51,3S96.45,39.87,96.45,37.85Z" transform="translate(-1.8)"/><path class="cls-1" d="M105.05,7.65a5.62,5.62,0,0,1-.18-1.21A5.54,5.54,0,0,1,110.1.63L110.19,2a3,3,0,0,0-.89.13,4.12,4.12,0,0,0-2.86,5.1L108,12.88l-1.34.4Z" transform="translate(-1.8)"/><rect class="cls-2" x="83.05" y="46.93" width="18.41" height="2.01"/><path class="cls-2" d="M71,48h0a6.44,6.44,0,1,0,6.43-6.43A6.41,6.41,0,0,0,71,48Zm6.43,3.76a3.8,3.8,0,0,1-3.8-3.8h0a3.8,3.8,0,1,1,3.8,3.8Z" transform="translate(-1.8)"/><path class="cls-2" d="M116.27,41.61A6.41,6.41,0,0,0,109.83,48h0a6.44,6.44,0,1,0,6.44-6.43Zm0,10.19a3.8,3.8,0,0,1-3.8-3.8h0a3.8,3.8,0,1,1,3.8,3.8Z" transform="translate(-1.8)"/><rect class="cls-1" x="107.7" y="10.23" width="1.97" height="15.68" transform="translate(-2.97 26.52) rotate(-13.84)"/><rect class="cls-2" x="105.75" y="10.12" width="2.28" height="1.21" transform="translate(-1.27 25.88) rotate(-13.84)"/><rect class="cls-2" x="105.81" y="9.37" width="1.74" height="0.85" transform="translate(-1.05 25.8) rotate(-13.84)"/><polygon class="cls-1" points="107 25.39 110.22 24.58 112.94 35.76 110.17 38.26 107 25.39"/><rect class="cls-2" x="108.51" y="24.63" width="3.89" height="1.16" transform="translate(-4.63 27.15) rotate(-13.84)"/><rect class="cls-2" x="108.75" y="23.93" width="2.95" height="0.85" transform="translate(-4.43 27.07) rotate(-13.84)"/><path class="cls-1" d="M113.63,32.94l3.57,14.57a1.15,1.15,0,0,1-.84,1.38l-.09,0h0a1.15,1.15,0,0,1-1.43-.85l-3.58-14.57h0a1.15,1.15,0,0,1,.85-1.43l.09,0A1.2,1.2,0,0,1,113.63,32.94Z" transform="translate(-1.8)"/><path class="cls-2" d="M109.12.9l0-.09A1.4,1.4,0,0,1,111,.1l4.2,1.74a1.4,1.4,0,0,1,.71,1.79l0,.09a1.4,1.4,0,0,1-1.79.71l-4.15-1.74A1.36,1.36,0,0,1,109.12.9Z" transform="translate(-1.8)"/><circle class="cls-2" cx="113.57" cy="3.63" r="1.7"/><path class="cls-2" d="M114.75,35.75l-7.82,10.77-4.78.76V42.41a9.16,9.16,0,0,1,1.34-4.82l1.92-3.13a9.28,9.28,0,0,1,8-4.43h0Z" transform="translate(-1.8)"/><path class="cls-1" d="M83.29,50.68,77.12,49a1.13,1.13,0,0,1,.58-2.19l6,1.61H97.63A12.86,12.86,0,0,0,108.18,43l10.19-13.63a1.12,1.12,0,0,1,1.56-.22,1.13,1.13,0,0,1,.22,1.57L110,44.29a15,15,0,0,1-12.34,6.39H83.29Z" transform="translate(-1.8)"/><path class="cls-1" d="M83.65,48.85a8.34,8.34,0,0,0-8.32-7.91H73.06a1.12,1.12,0,0,1,0-2.24h2.32a10.53,10.53,0,0,1,10.55,10,1.15,1.15,0,0,1-1.08,1.17h0A1.2,1.2,0,0,1,83.65,48.85Z" transform="translate(-1.8)"/><path class="cls-2" d="M106.61,25a11.23,11.23,0,0,1,3.62-10.55A8,8,0,0,0,112,4.52l-.67-1.3.4-.22.67,1.3a8.46,8.46,0,0,1-1.87,10.45,10.66,10.66,0,0,0-3.49,10.1l1.3,6.7-.45.09Z" transform="translate(-1.8)"/></svg>