<svg id="Layer_1" data-name="Layer 1" xmlns="http://www.w3.org/2000/svg" viewBox="0 0 99.48 31.68"><defs><style>.cls-1{fill:#fff;}</style></defs><path class="cls-1" d="M0,.44H4.84v13L11,.44h4.84L10.08,11.75l5.85,19.49H10.87L6.78,17.51,4.84,21.43v9.81H0Z"/><path class="cls-1" d="M19.67.44h4.84v30.8H19.67Z"/><path class="cls-1" d="M29.57.44h4.84v13l6.16-13h4.84L39.64,11.75l5.85,19.49H40.43L36.34,17.51l-1.93,3.92v9.81H29.57Z"/><path class="cls-1" d="M49.89,29.68a8.32,8.32,0,0,1-1.8-5.74V22.18h4.58v2.11c0,2,.83,3,2.5,3A2.32,2.32,0,0,0,57,26.55a3.48,3.48,0,0,0,.64-2.35,6.49,6.49,0,0,0-.88-3.41,16.49,16.49,0,0,0-3.25-3.54,19.22,19.22,0,0,1-4.18-4.78,9.61,9.61,0,0,1-1.19-4.81A8,8,0,0,1,50,2a7,7,0,0,1,5.36-2,6.69,6.69,0,0,1,5.26,2,8.36,8.36,0,0,1,1.78,5.74V9H57.86V7.44a3.53,3.53,0,0,0-.62-2.31,2.21,2.21,0,0,0-1.8-.73c-1.62,0-2.42,1-2.42,2.95a5.83,5.83,0,0,0,.9,3.12A17,17,0,0,0,57.2,14a18.1,18.1,0,0,1,4.18,4.8,10.67,10.67,0,0,1,1.14,5.06,8.25,8.25,0,0,1-1.87,5.81,7,7,0,0,1-5.43,2A6.84,6.84,0,0,1,49.89,29.68Z"/><path class="cls-1" d="M68.26,29.7a8,8,0,0,1-1.82-5.59V7.57A8,8,0,0,1,68.26,2a6.87,6.87,0,0,1,5.31-2,6.87,6.87,0,0,1,5.3,2,8,8,0,0,1,1.82,5.59v3.25H76.12V7.26c0-1.91-.81-2.86-2.42-2.86s-2.42.95-2.42,2.86v17.2c0,1.88.8,2.82,2.42,2.82s2.42-.94,2.42-2.82v-4.7h4.57v4.35a8,8,0,0,1-1.82,5.59,6.87,6.87,0,0,1-5.3,2A6.87,6.87,0,0,1,68.26,29.7Z"/><path class="cls-1" d="M86.68,29.66a8.07,8.07,0,0,1-1.89-5.72V7.74A8.07,8.07,0,0,1,86.68,2a7.13,7.13,0,0,1,5.45-2,7.14,7.14,0,0,1,5.46,2,8.07,8.07,0,0,1,1.89,5.72v16.2a8.07,8.07,0,0,1-1.89,5.72,7.1,7.1,0,0,1-5.46,2A7.09,7.09,0,0,1,86.68,29.66Zm8-5.42V7.44c0-2-.83-3-2.51-3s-2.51,1-2.51,3v16.8c0,2,.84,3,2.51,3S94.64,26.27,94.64,24.24Z"/></svg>